<?xml version="1.0" standalone="no"?><!DOCTYPE svg PUBLIC "-//W3C//DTD SVG 1.1//EN" "http://www.w3.org/Graphics/SVG/1.1/DTD/svg11.dtd"><svg t="1689127894555" class="icon" viewBox="0 0 1280 1024" version="1.1" xmlns="http://www.w3.org/2000/svg" p-id="5562" xmlns:xlink="http://www.w3.org/1999/xlink" width="250" height="200"><path d="M675.6 10.8c-21.6-14.4-49.6-14.4-71.2 0L332.6 192H96c-53 0-96 43-96 96v640c0 53 43 96 96 96h1088c53 0 96-43 96-96V288c0-53-43-96-96-96H947.4L675.6 10.8zM512 832c0-70.6 57.4-128 128-128s128 57.4 128 128v192H512v-192zM192 384h64c17.6 0 32 14.4 32 32v128c0 17.6-14.4 32-32 32H192c-17.6 0-32-14.4-32-32v-128c0-17.6 14.4-32 32-32z m800 32c0-17.6 14.4-32 32-32h64c17.6 0 32 14.4 32 32v128c0 17.6-14.4 32-32 32h-64c-17.6 0-32-14.4-32-32v-128zM192 640h64c17.6 0 32 14.4 32 32v128c0 17.6-14.4 32-32 32H192c-17.6 0-32-14.4-32-32v-128c0-17.6 14.4-32 32-32z m800 32c0-17.6 14.4-32 32-32h64c17.6 0 32 14.4 32 32v128c0 17.6-14.4 32-32 32h-64c-17.6 0-32-14.4-32-32v-128zM464 352a176 176 0 1 1 352 0 176 176 0 1 1-352 0z m176-96c-17.6 0-32 14.4-32 32v64c0 17.6 14.4 32 32 32h64c17.6 0 32-14.4 32-32s-14.4-32-32-32h-32v-32c0-17.6-14.4-32-32-32z" fill="#777" p-id="5563"></path></svg>