<?xml version="1.0" standalone="no"?><!DOCTYPE svg PUBLIC "-//W3C//DTD SVG 1.1//EN" "http://www.w3.org/Graphics/SVG/1.1/DTD/svg11.dtd"><svg t="1689127838845" class="icon" viewBox="0 0 1024 1024" version="1.1" xmlns="http://www.w3.org/2000/svg" p-id="3714" xmlns:xlink="http://www.w3.org/1999/xlink" width="200" height="200"><path d="M810.666667 384h-256V286.72A85.333333 85.333333 0 0 0 597.333333 213.333333a283.733333 283.733333 0 0 0-62.293333-119.466666 20.48 20.48 0 0 0-17.066667-8.533334h-11.946666a20.48 20.48 0 0 0-17.066667 8.533334A283.733333 283.733333 0 0 0 426.666667 213.333333a85.333333 85.333333 0 0 0 42.666666 73.386667V384H213.333333a85.333333 85.333333 0 0 0-85.333333 85.333333v256a42.666667 42.666667 0 0 0 42.666667 42.666667v128a42.666667 42.666667 0 0 0 42.666666 42.666667h597.333334a42.666667 42.666667 0 0 0 42.666666-42.666667v-128a42.666667 42.666667 0 0 0 42.666667-42.666667v-256a85.333333 85.333333 0 0 0-85.333333-85.333333z m-42.666667 469.333333H256v-90.88a170.666667 170.666667 0 0 0 96.426667-67.84 210.346667 210.346667 0 0 0 319.146666 0A170.666667 170.666667 0 0 0 768 762.453333z" fill="#777" p-id="3715"></path></svg>