<svg width="180" height="21" viewBox="0 0 180 21" fill="none" xmlns="http://www.w3.org/2000/svg">
<path d="M26.2319 0.337158L22.3027 20.1241H18.0061L20.324 8.34617L12.7862 18.0135H10.7415L6.67104 8.26608L4.31545 20.1383H0L3.9574 0.351291H7.68865L12.6354 12.6757L22.3027 0.337158H26.2319Z" fill="black"/>
<path d="M30.4721 18.626C29.0587 17.3916 28.3521 15.7003 28.3521 13.552C28.3614 12.8399 28.4371 12.1301 28.5782 11.432L30.783 0.337158H35.3906L33.1857 11.3331C33.0798 11.8828 33.023 12.441 33.0161 13.0008C33.0161 14.188 33.3412 15.0785 33.9913 15.6721C34.7884 16.3131 35.7975 16.631 36.818 16.5625C37.4293 16.5924 38.0403 16.4976 38.6138 16.2837C39.1872 16.0699 39.7111 15.7416 40.1536 15.3187C40.9827 14.4896 41.5858 13.161 41.9627 11.3331L44.1816 0.337158H48.6761L46.443 11.644C45.2369 17.5424 41.8637 20.4916 36.3234 20.4916C33.8359 20.4822 31.8854 19.8603 30.4721 18.626Z" fill="black"/>
<path d="M51.6675 19.8555C50.4352 19.535 49.2693 18.9991 48.2236 18.2726L50.1081 14.7392C51.036 15.4105 52.0672 15.9261 53.161 16.2656C54.2763 16.6291 55.4412 16.8182 56.6143 16.8263C57.6511 16.8766 58.6838 16.6627 59.6153 16.2044C59.9515 16.0566 60.2372 15.8137 60.4372 15.5057C60.6373 15.1977 60.7429 14.8379 60.7413 14.4707C60.7415 14.1859 60.6587 13.9073 60.5031 13.6688C60.3474 13.4304 60.1257 13.2424 59.865 13.128C58.967 12.7033 58.0297 12.3673 57.0665 12.1245C55.9999 11.8245 54.9522 11.4611 53.9289 11.0362C53.1041 10.6925 52.3715 10.16 51.79 9.48152C51.1703 8.69517 50.8558 7.71134 50.9043 6.71134C50.8804 5.44392 51.2708 4.20333 52.0161 3.17796C52.8276 2.10735 53.9275 1.29023 55.1868 0.822364C56.7076 0.247914 58.3244 -0.0303331 59.9498 0.00261917C61.2191 -0.0028844 62.4845 0.144218 63.7187 0.440759C64.7989 0.68828 65.8305 1.11335 66.7716 1.69864L65.0426 5.20377C64.2859 4.68413 63.4463 4.29701 62.5598 4.05895C61.6202 3.80276 60.6504 3.6744 59.6765 3.67734C58.6058 3.6236 57.5402 3.85786 56.5907 4.35575C56.2603 4.51645 55.9805 4.76496 55.7819 5.07408C55.5833 5.3832 55.4735 5.741 55.4647 6.10831C55.4597 6.31301 55.4993 6.51635 55.5806 6.70426C55.662 6.89216 55.7832 7.06015 55.9358 7.1966C56.2897 7.5111 56.703 7.7514 57.1513 7.90327C57.6382 8.0823 58.326 8.2943 59.2148 8.53929C60.2737 8.81172 61.3126 9.15644 62.3242 9.57103C63.1238 9.91523 63.8344 10.4373 64.4018 11.0975C65.0016 11.8438 65.3067 12.7842 65.2593 13.7404C65.2854 15.0155 64.8877 16.2632 64.1286 17.288C63.3037 18.353 62.1997 19.1684 60.9391 19.6435C59.4056 20.2269 57.7742 20.51 56.1337 20.4774C54.6232 20.4808 53.1197 20.2714 51.6675 19.8555Z" fill="black"/>
<path d="M75.0723 4.02602L74.2243 8.34617H83.4111L82.7044 11.9078H73.4893L72.5848 16.4871H83.3828L82.6196 20.1241H67.2988L71.2562 0.337158H86.2095L85.4463 4.01188L75.0723 4.02602Z" fill="black"/>
<path d="M106.812 16.7745H96.8902L97.8324 12.1057L96.2542 11.6346C96.2115 11.6199 96.1745 11.5923 96.1482 11.5555C96.122 11.5188 96.1079 11.4748 96.1079 11.4296C96.1079 11.3845 96.122 11.3405 96.1482 11.3038C96.1745 11.267 96.2115 11.2394 96.2542 11.2247L97.3896 10.8054L101.328 9.2884C101.369 9.27279 101.405 9.24505 101.43 9.20887C101.454 9.17269 101.468 9.12977 101.468 9.08582C101.468 9.04187 101.454 8.99895 101.43 8.96277C101.405 8.92659 101.369 8.89885 101.328 8.88324L98.6475 8.07763L99.8724 1.95309L101.498 0.690491H95.5051L94.0211 8.10118L96.6028 8.87382C96.6439 8.88943 96.6793 8.91717 96.7042 8.95335C96.7292 8.98953 96.7425 9.03245 96.7425 9.0764C96.7425 9.12035 96.7292 9.16327 96.7042 9.19945C96.6793 9.23563 96.6439 9.26337 96.6028 9.27898L93.5405 10.4332L91.51 11.187C91.4673 11.2017 91.4303 11.2293 91.4041 11.2661C91.3779 11.3028 91.3638 11.3468 91.3638 11.3919C91.3638 11.4371 91.3779 11.4811 91.4041 11.5178C91.4303 11.5546 91.4673 11.5822 91.51 11.5969L93.1919 12.1104L91.5194 20.4775H104.485C104.918 20.4765 105.338 20.326 105.674 20.0513C106.009 19.7767 106.24 19.3947 106.327 18.9699L106.633 17.4906L107.575 16.7556H106.779L106.812 16.7745Z" fill="#3FE52A"/>
<path d="M122.684 0.600952H118.218C117.783 0.601084 117.361 0.751764 117.025 1.02742C116.688 1.30308 116.457 1.68672 116.371 2.11324L115.156 8.11058L117.803 8.90206C117.845 8.91767 117.88 8.94541 117.905 8.98159C117.93 9.01777 117.943 9.06069 117.943 9.10464C117.943 9.14859 117.93 9.19151 117.905 9.22769C117.88 9.26387 117.845 9.29161 117.803 9.30722L114.746 10.4615L112.711 11.2152C112.668 11.2299 112.631 11.2576 112.605 11.2943C112.579 11.331 112.564 11.3751 112.564 11.4202C112.564 11.4653 112.579 11.5093 112.605 11.5461C112.631 11.5828 112.668 11.6104 112.711 11.6251L114.355 12.1151L112.701 20.3879H115.764C116.199 20.3876 116.621 20.2362 116.958 19.9596C117.295 19.683 117.525 19.2983 117.61 18.8709L118.967 12.0821L117.45 11.611C117.407 11.5963 117.37 11.5687 117.344 11.5319C117.318 11.4952 117.304 11.4512 117.304 11.4061C117.304 11.3609 117.318 11.3169 117.344 11.2802C117.37 11.2434 117.407 11.2158 117.45 11.2011L118.586 10.7818L122.529 9.28837C122.57 9.27276 122.605 9.24502 122.63 9.20884C122.655 9.17266 122.669 9.12975 122.669 9.08579C122.669 9.04184 122.655 8.99893 122.63 8.96274C122.605 8.92656 122.57 8.89883 122.529 8.88321L119.787 8.06347L121.021 1.88711L122.684 0.600952Z" fill="#3FE52A"/>
<path d="M150.009 0.337158H144.13L141.68 12.737L135.084 1.66571L136.818 0.337158H132.06C131.625 0.33729 131.203 0.487972 130.866 0.763628C130.53 1.03928 130.299 1.42293 130.213 1.84945L128.95 8.15772L131.466 8.91151C131.507 8.92712 131.543 8.95486 131.568 8.99104C131.592 9.02723 131.606 9.07014 131.606 9.11409C131.606 9.15805 131.592 9.20096 131.568 9.23714C131.543 9.27332 131.507 9.30106 131.466 9.31667L128.479 10.4426L126.373 11.22C126.331 11.2347 126.294 11.2623 126.267 11.299C126.241 11.3358 126.227 11.3798 126.227 11.4249C126.227 11.4701 126.241 11.5141 126.267 11.5508C126.294 11.5876 126.331 11.6152 126.373 11.6299L128.121 12.1622L126.557 20.1241H131.08L133.567 7.74314L140.945 20.1241H143.159C143.595 20.1238 144.017 19.9724 144.354 19.6958C144.691 19.4193 144.921 19.0345 145.006 18.6071L146.311 12.1151L144.775 11.644C144.732 11.6293 144.695 11.6017 144.669 11.5649C144.643 11.5282 144.629 11.4842 144.629 11.4391C144.629 11.3939 144.643 11.3499 144.669 11.3132C144.695 11.2764 144.732 11.2488 144.775 11.2341L145.911 10.8148L149.854 9.28841C149.895 9.27279 149.93 9.24506 149.955 9.20888C149.98 9.1727 149.994 9.12978 149.994 9.08583C149.994 9.04187 149.98 8.99896 149.955 8.96278C149.93 8.9266 149.895 8.89886 149.854 8.88325L147.126 8.06821L148.431 1.54793L150.009 0.337158Z" fill="#3FE52A"/>
<path d="M164.562 11.644C164.519 11.6293 164.482 11.6017 164.456 11.5649C164.43 11.5282 164.416 11.4842 164.416 11.439C164.416 11.3939 164.43 11.3499 164.456 11.3132C164.482 11.2764 164.519 11.2488 164.562 11.2341L165.697 10.8148L169.641 9.28839C169.682 9.27278 169.717 9.24504 169.742 9.20886C169.767 9.17268 169.78 9.12977 169.78 9.08581C169.78 9.04186 169.767 8.99894 169.742 8.96276C169.717 8.92658 169.682 8.89884 169.641 8.88323L167.629 8.2802L176.26 0.685772H170.72L160.459 9.75951L162.032 1.92481L163.681 0.643372H159.912V0.685772H159.295C158.851 0.679226 158.419 0.829726 158.075 1.11072C157.731 1.39172 157.497 1.78516 157.415 2.22162L156.228 8.153L158.791 8.92092C158.832 8.93653 158.867 8.96427 158.892 9.00045C158.917 9.03663 158.931 9.07955 158.931 9.1235C158.931 9.16746 158.917 9.21037 158.892 9.24655C158.867 9.28273 158.832 9.31047 158.791 9.32608L155.752 10.4756L153.698 11.2341C153.655 11.2488 153.618 11.2764 153.592 11.3132C153.566 11.3499 153.552 11.3939 153.552 11.439C153.552 11.4842 153.566 11.5282 153.592 11.5649C153.618 11.6017 153.655 11.6293 153.698 11.644L155.399 12.1622L153.731 20.4916H158.282L159.271 15.5731L162.466 12.7464L166.998 19.6436C167.169 19.9041 167.403 20.118 167.678 20.266C167.952 20.414 168.259 20.4915 168.571 20.4916H172.698L167.582 12.5768L164.562 11.644Z" fill="#3FE52A"/>
<path d="M109.879 15.9264C109.831 15.8279 109.756 15.745 109.662 15.6874C109.569 15.6299 109.461 15.6 109.352 15.6014H107.467L107.401 15.9735L107.363 15.9453V16.1855L107.34 16.308H109.125L108.136 17.6272L107.382 20.2607L108.065 20.4445L108.734 17.9946L109.823 16.5436C109.889 16.4564 109.929 16.3523 109.939 16.2431C109.949 16.134 109.929 16.0242 109.879 15.9264Z" fill="black"/>
<path d="M103.198 8.18132L101.003 7.36628L102.025 2.5279L104.503 0.596313H103.354L101.389 2.13216L100.183 7.81385L102.948 8.8456C102.971 8.853 102.99 8.86681 103.004 8.88526C103.018 8.90371 103.027 8.92598 103.028 8.94924C103.03 8.9725 103.024 8.99566 103.013 9.01579C103.001 9.03591 102.983 9.0521 102.963 9.06231L99.5658 10.796L98.6235 15.5072L99.3161 15.6438L100.197 11.2436L103.288 9.66535C103.43 9.59286 103.549 9.48036 103.629 9.34158C103.709 9.2028 103.747 9.04375 103.738 8.88385C103.729 8.72396 103.673 8.57015 103.578 8.44121C103.483 8.31226 103.353 8.21377 103.203 8.15776L103.198 8.18132Z" fill="black"/>
<path d="M125.756 0.478455H124.639L122.604 2.13208L121.403 7.81377L124.168 8.84552C124.19 8.85292 124.21 8.86673 124.224 8.88518C124.238 8.90363 124.247 8.9259 124.248 8.94916C124.25 8.97242 124.244 8.99558 124.232 9.01571C124.221 9.03583 124.203 9.05202 124.182 9.06223L120.79 10.7959L118.906 20.2183L119.598 20.3549L121.422 11.2435L124.512 9.66527C124.655 9.59278 124.773 9.48028 124.853 9.3415C124.933 9.20272 124.971 9.04367 124.962 8.88377C124.953 8.72388 124.898 8.57007 124.803 8.44113C124.708 8.31218 124.577 8.21369 124.427 8.15768L122.232 7.34265L123.254 2.49955L125.756 0.478455Z" fill="black"/>
<path d="M153.405 0.19574H152.289L149.91 2.13204L148.708 7.81372L151.474 8.84547C151.496 8.85288 151.515 8.86668 151.53 8.88514C151.544 8.90359 151.552 8.92585 151.554 8.94912C151.555 8.97238 151.55 8.99553 151.538 9.01566C151.526 9.03579 151.509 9.05198 151.488 9.06219L148.096 10.7959L146.211 20.2183L146.904 20.3549L148.727 11.2435L151.818 9.66522C151.961 9.59274 152.079 9.48024 152.159 9.34146C152.239 9.20267 152.277 9.04362 152.268 8.88373C152.259 8.72384 152.203 8.57003 152.108 8.44108C152.013 8.31214 151.883 8.21365 151.733 8.15764L149.538 7.34261L150.56 2.49951L153.405 0.19574Z" fill="black"/>
<path d="M172.618 10.0799C172.764 10.0209 172.89 9.92023 172.979 9.79042C173.069 9.66061 173.118 9.50735 173.122 9.34965C173.13 9.19856 173.095 9.0483 173.02 8.91647C172.946 8.78463 172.836 8.67669 172.702 8.60529L171.652 7.90803L180 0.71405H178.916L170.483 7.98341L172.368 9.21774C172.388 9.22713 172.406 9.24248 172.418 9.2618C172.429 9.28111 172.435 9.30351 172.434 9.3261C172.434 9.34857 172.428 9.37061 172.415 9.38918C172.402 9.40775 172.384 9.42193 172.363 9.42974L168.434 11.0834L174.94 20.7696L175.524 20.3738L169.48 11.4226L172.618 10.0799Z" fill="black"/>
</svg>
